<?xml version="1.0" encoding="us-ascii" standalone="no"?><svg xmlns="http://www.w3.org/2000/svg" xmlns:xlink="http://www.w3.org/1999/xlink" contentStyleType="text/css" height="1703px" preserveAspectRatio="none" style="width:1296px;height:1703px;background:#FFFFFF;" version="1.1" viewBox="0 0 1296 1703" width="1296px" zoomAndPan="magnify"><defs><filter height="1" id="b18xhmj9bbov8l0" width="1" x="0" y="0"><feFlood flood-color="#FFFF00" result="flood"/><feComposite in="SourceGraphic" in2="flood" operator="over"/></filter><filter height="1" id="b18xhmj9bbov8l1" width="1" x="0" y="0"><feFlood flood-color="#00FFFF" result="flood"/><feComposite in="SourceGraphic" in2="flood" operator="over"/></filter></defs><g><text fill="#000000" font-family="sans-serif" font-size="14" font-weight="bold" lengthAdjust="spacing" textLength="354" x="464" y="25.1074">Keyple - keyple-service-java-lib - 3.0.+ (2023-06-26)</text><rect fill="#DDDDDD" height="84.4844" id="_legend" rx="7.5" ry="7.5" style="stroke:#000000;stroke-width:1.0;" width="219" x="531.5" y="51.6211"/><text fill="#000000" font-family="sans-serif" font-size="14" lengthAdjust="spacing" text-decoration="underline" textLength="88" x="536.5" y="71.7285">Colors legend</text><text fill="#000000" font-family="sans-serif" font-size="14" lengthAdjust="spacing" textLength="4" x="628.5" y="71.7285">:</text><ellipse cx="542" cy="86.3633" fill="#000000" rx="2.5" ry="2.5" style="stroke:#000000;stroke-width:0.0;"/><text fill="#000000" font-family="sans-serif" font-size="14" lengthAdjust="spacing" text-decoration="underline" textLength="189" x="548.5" y="90.3496">External public API references</text><text fill="#000000" font-family="sans-serif" font-size="14" lengthAdjust="spacing" textLength="4" x="741.5" y="90.3496">:</text><rect fill="#000000" height="3.5" style="stroke:#000000;stroke-width:0.0;" width="3.5" x="545.5" y="102.4844"/><text fill="#000000" filter="url(#b18xhmj9bbov8l0)" font-family="sans-serif" font-size="14" font-weight="bold" lengthAdjust="spacing" textLength="163" x="552.5" y="108.9707">keypop-reader-java-api</text><rect fill="#000000" height="3.5" style="stroke:#000000;stroke-width:0.0;" width="3.5" x="545.5" y="121.1055"/><text fill="#000000" filter="url(#b18xhmj9bbov8l1)" font-family="sans-serif" font-size="14" font-weight="bold" lengthAdjust="spacing" textLength="170" x="552.5" y="127.5918">keyple-common-java-api</text><!--cluster service--><g id="cluster_service"><path d="M8.5,155.1191 L231.5,155.1191 A3.75,3.75 0 0 1 234,157.6191 L241,179.7402 L1286.5,179.7402 A2.5,2.5 0 0 1 1289,182.2402 L1289,1693.6191 A2.5,2.5 0 0 1 1286.5,1696.1191 L8.5,1696.1191 A2.5,2.5 0 0 1 6,1693.6191 L6,157.6191 A2.5,2.5 0 0 1 8.5,155.1191 " fill="#F8F9F9" style="stroke:#000000;stroke-width:1.5;"/><line style="stroke:#000000;stroke-width:1.5;" x1="6" x2="241" y1="179.7402" y2="179.7402"/><text fill="#000000" font-family="sans-serif" font-size="14" font-weight="bold" lengthAdjust="spacing" textLength="222" x="10" y="172.2266">org.eclipse.keyple.core.service</text></g><!--cluster spi--><g id="cluster_spi"><path d="M91.5,1208.1191 L113.5,1208.1191 A3.75,3.75 0 0 1 116,1210.6191 L123,1232.7402 L903.5,1232.7402 A2.5,2.5 0 0 1 906,1235.2402 L906,1325.6191 A2.5,2.5 0 0 1 903.5,1328.1191 L91.5,1328.1191 A2.5,2.5 0 0 1 89,1325.6191 L89,1210.6191 A2.5,2.5 0 0 1 91.5,1208.1191 " fill="#F2F3F4" style="stroke:#000000;stroke-width:1.5;"/><line style="stroke:#000000;stroke-width:1.5;" x1="89" x2="123" y1="1232.7402" y2="1232.7402"/><text fill="#000000" font-family="sans-serif" font-size="14" font-weight="bold" lengthAdjust="spacing" textLength="21" x="93" y="1225.2266">spi</text></g><!--class SmartCardServiceProvider--><g id="elem_SmartCardServiceProvider"><rect codeLine="62" fill="#E9F7EF" height="66.6211" id="SmartCardServiceProvider" rx="2.5" ry="2.5" style="stroke:#27AE60;stroke-width:2.0;" width="245" x="356.5" y="192.1191"/><ellipse cx="371.5" cy="208.1191" fill="#ADD1B2" rx="11" ry="11" style="stroke:#181818;stroke-width:1.0;"/><path d="M374.2656,203.9941 Q374.4219,203.7754 374.6094,203.666 Q374.7969,203.5566 375.0156,203.5566 Q375.3906,203.5566 375.625,203.8223 Q375.8594,204.0723 375.8594,204.6816 L375.8594,206.1348 Q375.8594,206.7441 375.625,207.0098 Q375.3906,207.2754 375.0156,207.2754 Q374.6719,207.2754 374.4688,207.0723 Q374.2656,206.8848 374.1563,206.3691 Q374.1094,206.0098 373.9219,205.8223 Q373.5938,205.4473 372.9844,205.2285 Q372.375,205.0098 371.75,205.0098 Q370.9844,205.0098 370.3438,205.3379 Q369.7188,205.666 369.2188,206.416 Q368.7344,207.166 368.7344,208.1973 L368.7344,209.291 Q368.7344,210.5254 369.625,211.3535 Q370.5156,212.166 372.1094,212.166 Q373.0469,212.166 373.7031,211.916 Q374.0938,211.7598 374.5156,211.3223 Q374.7813,211.0566 374.9219,210.9785 Q375.0781,210.9004 375.2813,210.9004 Q375.6094,210.9004 375.8594,211.166 Q376.125,211.416 376.125,211.7598 Q376.125,212.1035 375.7813,212.5098 Q375.2813,213.0879 374.4844,213.416 Q373.4063,213.8691 372.1094,213.8691 Q370.5938,213.8691 369.3906,213.2441 Q368.4063,212.7441 367.7188,211.6816 Q367.0313,210.6035 367.0313,209.3223 L367.0313,208.166 Q367.0313,206.8379 367.6406,205.6973 Q368.2656,204.541 369.3594,203.9316 Q370.4531,203.3066 371.6875,203.3066 Q372.4219,203.3066 373.0625,203.4785 Q373.7188,203.6348 374.2656,203.9941 Z " fill="#000000"/><ellipse cx="390.5" cy="207.6191" fill="#84BE84" rx="3" ry="3" style="stroke:#038048;stroke-width:1.0;"/><text fill="#000000" font-family="sans-serif" font-size="14" font-weight="bold" lengthAdjust="spacing" textLength="30" x="396.5" y="213.916">final</text><text fill="#000000" font-family="sans-serif" font-size="14" lengthAdjust="spacing" textLength="168" x="430.5" y="213.916">SmartCardServiceProvider</text><line style="stroke:#27AE60;stroke-width:2.0;" x1="357.5" x2="600.5" y1="224.1191" y2="224.1191"/><line style="stroke:#27AE60;stroke-width:2.0;" x1="357.5" x2="600.5" y1="232.1191" y2="232.1191"/><ellipse cx="367.5" cy="246.9297" fill="#84BE84" rx="3" ry="3" style="stroke:#038048;stroke-width:1.0;"/><text fill="#000000" font-family="sans-serif" font-size="14" lengthAdjust="spacing" text-decoration="underline" textLength="200" x="376.5" y="251.2266">SmartCardService getService ()</text></g><!--class SmartCardService--><g id="elem_SmartCardService"><rect codeLine="65" fill="#FEFECE" height="327.3164" id="SmartCardService" rx="2.5" ry="2.5" style="stroke:#D4AC0D;stroke-width:2.0;" width="890" x="34" y="338.1191"/><ellipse cx="412.25" cy="354.1191" fill="#B4A7E5" rx="11" ry="11" style="stroke:#181818;stroke-width:1.0;"/><path d="M413.2031,350.7598 L413.2031,357.416 L414.9219,357.416 Q415.5313,357.416 415.7969,357.6504 Q416.0625,357.8848 416.0625,358.2754 Q416.0625,358.6504 415.7969,358.8848 Q415.5313,359.1191 414.9219,359.1191 L409.7813,359.1191 Q409.1719,359.1191 408.9063,358.8848 Q408.6406,358.6504 408.6406,358.2598 Q408.6406,357.8848 408.9063,357.6504 Q409.1719,357.416 409.7813,357.416 L411.5,357.416 L411.5,350.7598 L409.7813,350.7598 Q409.1719,350.7598 408.9063,350.5254 Q408.6406,350.291 408.6406,349.9004 Q408.6406,349.5254 408.9063,349.291 Q409.1719,349.0566 409.7813,349.0566 L414.9219,349.0566 Q415.5313,349.0566 415.7969,349.291 Q416.0625,349.5254 416.0625,349.9004 Q416.0625,350.291 415.7969,350.5254 Q415.5313,350.7598 414.9219,350.7598 L413.2031,350.7598 Z " fill="#000000"/><ellipse cx="437.75" cy="353.6191" fill="#84BE84" rx="3" ry="3" style="stroke:#038048;stroke-width:1.0;"/><text fill="#000000" font-family="sans-serif" font-size="14" font-style="italic" lengthAdjust="spacing" textLength="114" x="443.75" y="359.916">SmartCardService</text><line style="stroke:#D4AC0D;stroke-width:2.0;" x1="35" x2="923" y1="370.1191" y2="370.1191"/><line style="stroke:#D4AC0D;stroke-width:2.0;" x1="35" x2="923" y1="378.1191" y2="378.1191"/><ellipse cx="45" cy="392.9297" fill="#84BE84" rx="3" ry="3" style="stroke:#038048;stroke-width:1.0;"/><text fill="#000000" font-family="sans-serif" font-size="14" lengthAdjust="spacing" textLength="139" x="54" y="397.2266">Plugin registerPlugin (</text><text fill="#000000" filter="url(#b18xhmj9bbov8l1)" font-family="sans-serif" font-size="14" lengthAdjust="spacing" textLength="191" x="193" y="397.2266">KeyplePluginExtensionFactory</text><text fill="#000000" font-family="sans-serif" font-size="14" lengthAdjust="spacing" textLength="91" x="388" y="397.2266">pluginFactory)</text><ellipse cx="45" cy="411.5508" fill="#84BE84" rx="3" ry="3" style="stroke:#038048;stroke-width:1.0;"/><text fill="#000000" font-family="sans-serif" font-size="14" lengthAdjust="spacing" textLength="262" x="54" y="415.8477">void unregisterPlugin (String pluginName)</text><ellipse cx="45" cy="430.1719" fill="#84BE84" rx="3" ry="3" style="stroke:#038048;stroke-width:1.0;"/><text fill="#000000" font-family="sans-serif" font-size="14" lengthAdjust="spacing" textLength="194" x="54" y="434.4688">Set&lt;String&gt; getPluginNames ()</text><ellipse cx="45" cy="448.793" fill="#84BE84" rx="3" ry="3" style="stroke:#038048;stroke-width:1.0;"/><text fill="#000000" font-family="sans-serif" font-size="14" lengthAdjust="spacing" textLength="160" x="54" y="453.0898">Set&lt;Plugin&gt; getPlugins ()</text><ellipse cx="45" cy="467.4141" fill="#84BE84" rx="3" ry="3" style="stroke:#038048;stroke-width:1.0;"/><text fill="#000000" font-family="sans-serif" font-size="14" lengthAdjust="spacing" textLength="231" x="54" y="471.7109">Plugin getPlugin (String pluginName)</text><ellipse cx="45" cy="486.0352" fill="#84BE84" rx="3" ry="3" style="stroke:#038048;stroke-width:1.0;"/><text fill="#000000" font-family="sans-serif" font-size="14" lengthAdjust="spacing" textLength="111" x="54" y="490.332">Plugin getPlugin (</text><text fill="#000000" filter="url(#b18xhmj9bbov8l0)" font-family="sans-serif" font-size="14" lengthAdjust="spacing" textLength="78" x="165" y="490.332">CardReader</text><text fill="#000000" font-family="sans-serif" font-size="14" lengthAdjust="spacing" textLength="47" x="247" y="490.332">reader)</text><ellipse cx="45" cy="504.6563" fill="#84BE84" rx="3" ry="3" style="stroke:#038048;stroke-width:1.0;"/><text fill="#000000" filter="url(#b18xhmj9bbov8l0)" font-family="sans-serif" font-size="14" lengthAdjust="spacing" textLength="78" x="54" y="508.9531">CardReader</text><text fill="#000000" font-family="sans-serif" font-size="14" lengthAdjust="spacing" textLength="200" x="136" y="508.9531">getReader (String readerName)</text><text fill="#000000" font-family="sans-serif" font-size="14" lengthAdjust="spacing" textLength="4" x="54" y="527.5742">&#160;</text><ellipse cx="45" cy="541.8984" fill="#84BE84" rx="3" ry="3" style="stroke:#038048;stroke-width:1.0;"/><text fill="#000000" font-family="sans-serif" font-size="14" lengthAdjust="spacing" textLength="168" x="54" y="546.1953">void checkCardExtension (</text><text fill="#000000" filter="url(#b18xhmj9bbov8l1)" font-family="sans-serif" font-size="14" lengthAdjust="spacing" textLength="135" x="222" y="546.1953">KeypleCardExtension</text><text fill="#000000" font-family="sans-serif" font-size="14" lengthAdjust="spacing" textLength="94" x="361" y="546.1953">cardExtension)</text><text fill="#000000" font-family="sans-serif" font-size="14" lengthAdjust="spacing" textLength="4" x="54" y="564.8164">&#160;</text><ellipse cx="45" cy="579.1406" fill="#84BE84" rx="3" ry="3" style="stroke:#038048;stroke-width:1.0;"/><text fill="#000000" font-family="sans-serif" font-size="14" lengthAdjust="spacing" textLength="359" x="54" y="583.4375">DistributedLocalService registerDistributedLocalService (</text><text fill="#000000" filter="url(#b18xhmj9bbov8l1)" font-family="sans-serif" font-size="14" lengthAdjust="spacing" textLength="301" x="413" y="583.4375">KeypleDistributedLocalServiceExtensionFactory</text><text fill="#000000" font-family="sans-serif" font-size="14" lengthAdjust="spacing" textLength="200" x="718" y="583.4375">distributedLocalServiceFactory)</text><ellipse cx="45" cy="597.7617" fill="#84BE84" rx="3" ry="3" style="stroke:#038048;stroke-width:1.0;"/><text fill="#000000" font-family="sans-serif" font-size="14" lengthAdjust="spacing" textLength="481" x="54" y="602.0586">void unregisterDistributedLocalService (String distributedLocalServiceName)</text><ellipse cx="45" cy="616.3828" fill="#84BE84" rx="3" ry="3" style="stroke:#038048;stroke-width:1.0;"/><text fill="#000000" font-family="sans-serif" font-size="14" lengthAdjust="spacing" textLength="560" x="54" y="620.6797">DistributedLocalService getDistributedLocalService (String distributedLocalServiceName)</text><text fill="#000000" font-family="sans-serif" font-size="14" lengthAdjust="spacing" textLength="4" x="54" y="639.3008">&#160;</text><ellipse cx="45" cy="653.625" fill="#84BE84" rx="3" ry="3" style="stroke:#038048;stroke-width:1.0;"/><text fill="#0000FF" filter="url(#b18xhmj9bbov8l0)" font-family="sans-serif" font-size="14" lengthAdjust="spacing" textLength="115" x="54" y="657.9219">ReaderApiFactory</text><text fill="#0000FF" font-family="sans-serif" font-size="14" lengthAdjust="spacing" textLength="149" x="173" y="657.9219">getReaderApiFactory ()</text></g><!--class Plugin--><g id="elem_Plugin"><rect codeLine="82" fill="#FEFECE" height="178.3477" id="Plugin" rx="2.5" ry="2.5" style="stroke:#D4AC0D;stroke-width:2.0;" width="747" x="22.5" y="744.1191"/><ellipse cx="366.75" cy="760.1191" fill="#B4A7E5" rx="11" ry="11" style="stroke:#181818;stroke-width:1.0;"/><path d="M367.7031,756.7598 L367.7031,763.416 L369.4219,763.416 Q370.0313,763.416 370.2969,763.6504 Q370.5625,763.8848 370.5625,764.2754 Q370.5625,764.6504 370.2969,764.8848 Q370.0313,765.1191 369.4219,765.1191 L364.2813,765.1191 Q363.6719,765.1191 363.4063,764.8848 Q363.1406,764.6504 363.1406,764.2598 Q363.1406,763.8848 363.4063,763.6504 Q363.6719,763.416 364.2813,763.416 L366,763.416 L366,756.7598 L364.2813,756.7598 Q363.6719,756.7598 363.4063,756.5254 Q363.1406,756.291 363.1406,755.9004 Q363.1406,755.5254 363.4063,755.291 Q363.6719,755.0566 364.2813,755.0566 L369.4219,755.0566 Q370.0313,755.0566 370.2969,755.291 Q370.5625,755.5254 370.5625,755.9004 Q370.5625,756.291 370.2969,756.5254 Q370.0313,756.7598 369.4219,756.7598 L367.7031,756.7598 Z " fill="#000000"/><ellipse cx="392.25" cy="759.6191" fill="#84BE84" rx="3" ry="3" style="stroke:#038048;stroke-width:1.0;"/><text fill="#000000" font-family="sans-serif" font-size="14" font-style="italic" lengthAdjust="spacing" textLength="39" x="398.25" y="765.916">Plugin</text><line style="stroke:#D4AC0D;stroke-width:2.0;" x1="23.5" x2="768.5" y1="776.1191" y2="776.1191"/><line style="stroke:#D4AC0D;stroke-width:2.0;" x1="23.5" x2="768.5" y1="784.1191" y2="784.1191"/><ellipse cx="33.5" cy="798.9297" fill="#84BE84" rx="3" ry="3" style="stroke:#038048;stroke-width:1.0;"/><text fill="#000000" font-family="sans-serif" font-size="14" lengthAdjust="spacing" textLength="111" x="42.5" y="803.2266">String getName ()</text><ellipse cx="33.5" cy="817.5508" fill="#84BE84" rx="3" ry="3" style="stroke:#038048;stroke-width:1.0;"/><text fill="#000000" font-family="sans-serif" font-size="14" lengthAdjust="spacing" textLength="70" x="42.5" y="821.8477">&lt;T extends</text><text fill="#000000" filter="url(#b18xhmj9bbov8l1)" font-family="sans-serif" font-size="14" lengthAdjust="spacing" textLength="143" x="116.5" y="821.8477">KeyplePluginExtension</text><text fill="#000000" font-family="sans-serif" font-size="14" lengthAdjust="spacing" textLength="318" x="259.5" y="821.8477">&gt; T getExtension (Class&lt;T&gt; pluginExtensionClass)</text><ellipse cx="33.5" cy="836.1719" fill="#84BE84" rx="3" ry="3" style="stroke:#038048;stroke-width:1.0;"/><text fill="#000000" font-family="sans-serif" font-size="14" lengthAdjust="spacing" textLength="70" x="42.5" y="840.4688">&lt;T extends</text><text fill="#000000" filter="url(#b18xhmj9bbov8l1)" font-family="sans-serif" font-size="14" lengthAdjust="spacing" textLength="151" x="116.5" y="840.4688">KeypleReaderExtension</text><text fill="#000000" font-family="sans-serif" font-size="14" lengthAdjust="spacing" textLength="496" x="267.5" y="840.4688">&gt; T getReaderExtension (Class&lt;T&gt; readerExtensionClass, String readerName)</text><text fill="#000000" font-family="sans-serif" font-size="14" lengthAdjust="spacing" textLength="4" x="42.5" y="859.0898">&#160;</text><ellipse cx="33.5" cy="873.4141" fill="#84BE84" rx="3" ry="3" style="stroke:#038048;stroke-width:1.0;"/><text fill="#000000" font-family="sans-serif" font-size="14" lengthAdjust="spacing" textLength="202" x="42.5" y="877.7109">Set&lt;String&gt; getReaderNames ()</text><ellipse cx="33.5" cy="892.0352" fill="#84BE84" rx="3" ry="3" style="stroke:#038048;stroke-width:1.0;"/><text fill="#000000" font-family="sans-serif" font-size="14" lengthAdjust="spacing" textLength="29" x="42.5" y="896.332">Set&lt;</text><text fill="#0000FF" font-family="sans-serif" font-size="14" lengthAdjust="spacing" textLength="78" x="71.5" y="896.332">CardReader</text><text fill="#000000" font-family="sans-serif" font-size="14" lengthAdjust="spacing" textLength="100" x="149.5" y="896.332">&gt; getReaders ()</text><ellipse cx="33.5" cy="910.6563" fill="#84BE84" rx="3" ry="3" style="stroke:#038048;stroke-width:1.0;"/><text fill="#0000FF" font-family="sans-serif" font-size="14" lengthAdjust="spacing" textLength="78" x="42.5" y="914.9531">CardReader</text><text fill="#000000" font-family="sans-serif" font-size="14" lengthAdjust="spacing" textLength="200" x="124.5" y="914.9531">getReader (String readerName)</text></g><!--class DistributedLocalService--><g id="elem_DistributedLocalService"><rect codeLine="91" fill="#FEFECE" height="103.8633" id="DistributedLocalService" rx="2.5" ry="2.5" style="stroke:#D4AC0D;stroke-width:2.0;" width="468" x="805" y="781.1191"/><ellipse cx="955.25" cy="797.1191" fill="#B4A7E5" rx="11" ry="11" style="stroke:#181818;stroke-width:1.0;"/><path d="M956.2031,793.7598 L956.2031,800.416 L957.9219,800.416 Q958.5313,800.416 958.7969,800.6504 Q959.0625,800.8848 959.0625,801.2754 Q959.0625,801.6504 958.7969,801.8848 Q958.5313,802.1191 957.9219,802.1191 L952.7813,802.1191 Q952.1719,802.1191 951.9063,801.8848 Q951.6406,801.6504 951.6406,801.2598 Q951.6406,800.8848 951.9063,800.6504 Q952.1719,800.416 952.7813,800.416 L954.5,800.416 L954.5,793.7598 L952.7813,793.7598 Q952.1719,793.7598 951.9063,793.5254 Q951.6406,793.291 951.6406,792.9004 Q951.6406,792.5254 951.9063,792.291 Q952.1719,792.0566 952.7813,792.0566 L957.9219,792.0566 Q958.5313,792.0566 958.7969,792.291 Q959.0625,792.5254 959.0625,792.9004 Q959.0625,793.291 958.7969,793.5254 Q958.5313,793.7598 957.9219,793.7598 L956.2031,793.7598 Z " fill="#000000"/><ellipse cx="980.75" cy="796.6191" fill="#84BE84" rx="3" ry="3" style="stroke:#038048;stroke-width:1.0;"/><text fill="#000000" font-family="sans-serif" font-size="14" font-style="italic" lengthAdjust="spacing" textLength="148" x="986.75" y="802.916">DistributedLocalService</text><line style="stroke:#D4AC0D;stroke-width:2.0;" x1="806" x2="1272" y1="813.1191" y2="813.1191"/><line style="stroke:#D4AC0D;stroke-width:2.0;" x1="806" x2="1272" y1="821.1191" y2="821.1191"/><ellipse cx="816" cy="835.9297" fill="#84BE84" rx="3" ry="3" style="stroke:#038048;stroke-width:1.0;"/><text fill="#000000" font-family="sans-serif" font-size="14" lengthAdjust="spacing" textLength="111" x="825" y="840.2266">String getName ()</text><ellipse cx="816" cy="863.8613" fill="#84BE84" rx="3" ry="3" style="stroke:#038048;stroke-width:1.0;"/><text fill="#000000" font-family="sans-serif" font-size="14" lengthAdjust="spacing" textLength="70" x="825" y="858.8477">&lt;T extends</text><text fill="#000000" filter="url(#b18xhmj9bbov8l1)" font-family="sans-serif" font-size="14" lengthAdjust="spacing" textLength="253" x="899" y="858.8477">KeypleDistributedLocalServiceExtension</text><text fill="#000000" font-family="sans-serif" font-size="14" lengthAdjust="spacing" textLength="115" x="1152" y="858.8477">&gt; T getExtension (</text><text fill="#000000" font-family="sans-serif" font-size="14" lengthAdjust="spacing" textLength="312" x="857" y="877.4688">Class&lt;T&gt; distributedLocalServiceExtensionClass)</text></g><!--class ObservablePlugin--><g id="elem_ObservablePlugin"><rect codeLine="95" fill="#FEFECE" height="159.7266" id="ObservablePlugin" rx="2.5" ry="2.5" style="stroke:#D4AC0D;stroke-width:2.0;" width="674" x="22" y="983.1191"/><ellipse cx="293.75" cy="999.1191" fill="#B4A7E5" rx="11" ry="11" style="stroke:#181818;stroke-width:1.0;"/><path d="M294.7031,995.7598 L294.7031,1002.416 L296.4219,1002.416 Q297.0313,1002.416 297.2969,1002.6504 Q297.5625,1002.8848 297.5625,1003.2754 Q297.5625,1003.6504 297.2969,1003.8848 Q297.0313,1004.1191 296.4219,1004.1191 L291.2813,1004.1191 Q290.6719,1004.1191 290.4063,1003.8848 Q290.1406,1003.6504 290.1406,1003.2598 Q290.1406,1002.8848 290.4063,1002.6504 Q290.6719,1002.416 291.2813,1002.416 L293,1002.416 L293,995.7598 L291.2813,995.7598 Q290.6719,995.7598 290.4063,995.5254 Q290.1406,995.291 290.1406,994.9004 Q290.1406,994.5254 290.4063,994.291 Q290.6719,994.0566 291.2813,994.0566 L296.4219,994.0566 Q297.0313,994.0566 297.2969,994.291 Q297.5625,994.5254 297.5625,994.9004 Q297.5625,995.291 297.2969,995.5254 Q297.0313,995.7598 296.4219,995.7598 L294.7031,995.7598 Z " fill="#000000"/><ellipse cx="319.25" cy="998.6191" fill="#84BE84" rx="3" ry="3" style="stroke:#038048;stroke-width:1.0;"/><text fill="#000000" font-family="sans-serif" font-size="14" font-style="italic" lengthAdjust="spacing" textLength="111" x="325.25" y="1004.916">ObservablePlugin</text><line style="stroke:#D4AC0D;stroke-width:2.0;" x1="23" x2="695" y1="1015.1191" y2="1015.1191"/><line style="stroke:#D4AC0D;stroke-width:2.0;" x1="23" x2="695" y1="1023.1191" y2="1023.1191"/><ellipse cx="33" cy="1037.9297" fill="#84BE84" rx="3" ry="3" style="stroke:#038048;stroke-width:1.0;"/><text fill="#000000" font-family="sans-serif" font-size="14" lengthAdjust="spacing" textLength="648" x="42" y="1042.2266">void setPluginObservationExceptionHandler (PluginObservationExceptionHandlerSpi exceptionHandler)</text><text fill="#000000" font-family="sans-serif" font-size="14" lengthAdjust="spacing" textLength="4" x="42" y="1060.8477">&#160;</text><ellipse cx="33" cy="1075.1719" fill="#84BE84" rx="3" ry="3" style="stroke:#038048;stroke-width:1.0;"/><text fill="#000000" font-family="sans-serif" font-size="14" lengthAdjust="spacing" textLength="305" x="42" y="1079.4688">void addObserver (PluginObserverSpi observer)</text><ellipse cx="33" cy="1093.793" fill="#84BE84" rx="3" ry="3" style="stroke:#038048;stroke-width:1.0;"/><text fill="#000000" font-family="sans-serif" font-size="14" lengthAdjust="spacing" textLength="328" x="42" y="1098.0898">void removeObserver (PluginObserverSpi observer)</text><ellipse cx="33" cy="1112.4141" fill="#84BE84" rx="3" ry="3" style="stroke:#038048;stroke-width:1.0;"/><text fill="#000000" font-family="sans-serif" font-size="14" lengthAdjust="spacing" textLength="141" x="42" y="1116.7109">void clearObservers ()</text><ellipse cx="33" cy="1131.0352" fill="#84BE84" rx="3" ry="3" style="stroke:#038048;stroke-width:1.0;"/><text fill="#000000" font-family="sans-serif" font-size="14" lengthAdjust="spacing" textLength="134" x="42" y="1135.332">int countObservers ()</text></g><!--class PoolPlugin--><g id="elem_PoolPlugin"><rect codeLine="103" fill="#FEFECE" height="159.7266" id="PoolPlugin" rx="2.5" ry="2.5" style="stroke:#D4AC0D;stroke-width:2.0;" width="407" x="731.5" y="983.1191"/><ellipse cx="891.75" cy="999.1191" fill="#B4A7E5" rx="11" ry="11" style="stroke:#181818;stroke-width:1.0;"/><path d="M892.7031,995.7598 L892.7031,1002.416 L894.4219,1002.416 Q895.0313,1002.416 895.2969,1002.6504 Q895.5625,1002.8848 895.5625,1003.2754 Q895.5625,1003.6504 895.2969,1003.8848 Q895.0313,1004.1191 894.4219,1004.1191 L889.2813,1004.1191 Q888.6719,1004.1191 888.4063,1003.8848 Q888.1406,1003.6504 888.1406,1003.2598 Q888.1406,1002.8848 888.4063,1002.6504 Q888.6719,1002.416 889.2813,1002.416 L891,1002.416 L891,995.7598 L889.2813,995.7598 Q888.6719,995.7598 888.4063,995.5254 Q888.1406,995.291 888.1406,994.9004 Q888.1406,994.5254 888.4063,994.291 Q888.6719,994.0566 889.2813,994.0566 L894.4219,994.0566 Q895.0313,994.0566 895.2969,994.291 Q895.5625,994.5254 895.5625,994.9004 Q895.5625,995.291 895.2969,995.5254 Q895.0313,995.7598 894.4219,995.7598 L892.7031,995.7598 Z " fill="#000000"/><ellipse cx="917.25" cy="998.6191" fill="#84BE84" rx="3" ry="3" style="stroke:#038048;stroke-width:1.0;"/><text fill="#000000" font-family="sans-serif" font-size="14" font-style="italic" lengthAdjust="spacing" textLength="67" x="923.25" y="1004.916">PoolPlugin</text><line style="stroke:#D4AC0D;stroke-width:2.0;" x1="732.5" x2="1137.5" y1="1015.1191" y2="1015.1191"/><line style="stroke:#D4AC0D;stroke-width:2.0;" x1="732.5" x2="1137.5" y1="1023.1191" y2="1023.1191"/><ellipse cx="742.5" cy="1037.9297" fill="#84BE84" rx="3" ry="3" style="stroke:#038048;stroke-width:1.0;"/><text fill="#000000" font-family="sans-serif" font-size="14" lengthAdjust="spacing" textLength="314" x="751.5" y="1042.2266">SortedSet&lt;String&gt; getReaderGroupReferences ()</text><text fill="#000000" font-family="sans-serif" font-size="14" lengthAdjust="spacing" textLength="4" x="751.5" y="1060.8477">&#160;</text><ellipse cx="742.5" cy="1075.1719" fill="#84BE84" rx="3" ry="3" style="stroke:#038048;stroke-width:1.0;"/><text fill="#0000FF" font-family="sans-serif" font-size="14" lengthAdjust="spacing" textLength="78" x="751.5" y="1079.4688">CardReader</text><text fill="#000000" font-family="sans-serif" font-size="14" lengthAdjust="spacing" textLength="299" x="833.5" y="1079.4688">allocateReader (String readerGroupReference)</text><ellipse cx="742.5" cy="1093.793" fill="#84BE84" rx="3" ry="3" style="stroke:#038048;stroke-width:1.0;"/><text fill="#000000" filter="url(#b18xhmj9bbov8l0)" font-family="sans-serif" font-size="14" lengthAdjust="spacing" textLength="68" x="751.5" y="1098.0898">SmartCard</text><text fill="#000000" font-family="sans-serif" font-size="14" lengthAdjust="spacing" textLength="152" x="823.5" y="1098.0898">getSelectedSmartCard (</text><text fill="#000000" filter="url(#b18xhmj9bbov8l0)" font-family="sans-serif" font-size="14" lengthAdjust="spacing" textLength="78" x="975.5" y="1098.0898">CardReader</text><text fill="#000000" font-family="sans-serif" font-size="14" lengthAdjust="spacing" textLength="47" x="1057.5" y="1098.0898">reader)</text><text fill="#000000" font-family="sans-serif" font-size="14" lengthAdjust="spacing" textLength="4" x="751.5" y="1116.7109">&#160;</text><ellipse cx="742.5" cy="1131.0352" fill="#84BE84" rx="3" ry="3" style="stroke:#038048;stroke-width:1.0;"/><text fill="#000000" font-family="sans-serif" font-size="14" lengthAdjust="spacing" textLength="133" x="751.5" y="1135.332">void releaseReader (</text><text fill="#000000" filter="url(#b18xhmj9bbov8l0)" font-family="sans-serif" font-size="14" lengthAdjust="spacing" textLength="78" x="884.5" y="1135.332">CardReader</text><text fill="#000000" font-family="sans-serif" font-size="14" lengthAdjust="spacing" textLength="47" x="966.5" y="1135.332">reader)</text></g><!--class PluginEvent--><g id="elem_PluginEvent"><rect codeLine="121" fill="#FEFECE" height="103.8633" id="PluginEvent" rx="2.5" ry="2.5" style="stroke:#D4AC0D;stroke-width:2.0;" width="270" x="127" y="1393.1191"/><ellipse cx="215.25" cy="1409.1191" fill="#B4A7E5" rx="11" ry="11" style="stroke:#181818;stroke-width:1.0;"/><path d="M216.2031,1405.7598 L216.2031,1412.416 L217.9219,1412.416 Q218.5313,1412.416 218.7969,1412.6504 Q219.0625,1412.8848 219.0625,1413.2754 Q219.0625,1413.6504 218.7969,1413.8848 Q218.5313,1414.1191 217.9219,1414.1191 L212.7813,1414.1191 Q212.1719,1414.1191 211.9063,1413.8848 Q211.6406,1413.6504 211.6406,1413.2598 Q211.6406,1412.8848 211.9063,1412.6504 Q212.1719,1412.416 212.7813,1412.416 L214.5,1412.416 L214.5,1405.7598 L212.7813,1405.7598 Q212.1719,1405.7598 211.9063,1405.5254 Q211.6406,1405.291 211.6406,1404.9004 Q211.6406,1404.5254 211.9063,1404.291 Q212.1719,1404.0566 212.7813,1404.0566 L217.9219,1404.0566 Q218.5313,1404.0566 218.7969,1404.291 Q219.0625,1404.5254 219.0625,1404.9004 Q219.0625,1405.291 218.7969,1405.5254 Q218.5313,1405.7598 217.9219,1405.7598 L216.2031,1405.7598 Z " fill="#000000"/><ellipse cx="240.75" cy="1408.6191" fill="#84BE84" rx="3" ry="3" style="stroke:#038048;stroke-width:1.0;"/><text fill="#000000" font-family="sans-serif" font-size="14" font-style="italic" lengthAdjust="spacing" textLength="74" x="246.75" y="1414.916">PluginEvent</text><line style="stroke:#D4AC0D;stroke-width:2.0;" x1="128" x2="396" y1="1425.1191" y2="1425.1191"/><line style="stroke:#D4AC0D;stroke-width:2.0;" x1="128" x2="396" y1="1433.1191" y2="1433.1191"/><ellipse cx="138" cy="1447.9297" fill="#84BE84" rx="3" ry="3" style="stroke:#038048;stroke-width:1.0;"/><text fill="#000000" font-family="sans-serif" font-size="14" lengthAdjust="spacing" textLength="150" x="147" y="1452.2266">String getPluginName ()</text><ellipse cx="138" cy="1466.5508" fill="#84BE84" rx="3" ry="3" style="stroke:#038048;stroke-width:1.0;"/><text fill="#000000" font-family="sans-serif" font-size="14" lengthAdjust="spacing" textLength="244" x="147" y="1470.8477">SortedSet&lt;String&gt; getReaderNames ()</text><ellipse cx="138" cy="1485.1719" fill="#84BE84" rx="3" ry="3" style="stroke:#038048;stroke-width:1.0;"/><text fill="#000000" font-family="sans-serif" font-size="14" lengthAdjust="spacing" textLength="102" x="147" y="1489.4688">Type getType ()</text></g><!--class PluginEventType--><g id="elem_PluginEventType"><rect codeLine="126" fill="#E9F7EF" height="103.8633" id="PluginEventType" rx="2.5" ry="2.5" style="stroke:#27AE60;stroke-width:2.0;" width="185" x="170.5" y="1576.1191"/><ellipse cx="237.25" cy="1592.1191" fill="#EB937F" rx="11" ry="11" style="stroke:#181818;stroke-width:1.0;"/><path d="M236.1094,1592.916 L236.1094,1595.416 L240.4375,1595.416 L240.4375,1594.4941 Q240.4375,1593.8848 240.6719,1593.6191 Q240.9219,1593.3535 241.2969,1593.3535 Q241.6719,1593.3535 241.9063,1593.6191 Q242.1406,1593.8848 242.1406,1594.4941 L242.1406,1597.1191 L234.1406,1597.1191 Q233.5156,1597.1191 233.25,1596.8848 Q233,1596.6504 233,1596.2598 Q233,1595.8848 233.2656,1595.6504 Q233.5313,1595.416 234.1406,1595.416 L234.4063,1595.416 L234.4063,1588.7598 L234.1406,1588.7598 Q233.5156,1588.7598 233.25,1588.5254 Q233,1588.291 233,1587.9004 Q233,1587.5254 233.25,1587.291 Q233.5156,1587.0566 234.1406,1587.0566 L241.7656,1587.0566 L241.7656,1589.6504 Q241.7656,1590.2598 241.5313,1590.5254 Q241.3125,1590.7754 240.9219,1590.7754 Q240.5469,1590.7754 240.3125,1590.5254 Q240.0781,1590.2598 240.0781,1589.6504 L240.0781,1588.7598 L236.1094,1588.7598 L236.1094,1591.2129 L237.5938,1591.2129 Q237.5938,1590.5566 237.7188,1590.3691 Q237.9844,1589.9629 238.4531,1589.9629 Q238.8281,1589.9629 239.0625,1590.2285 Q239.2969,1590.4785 239.2969,1591.0879 L239.2969,1593.0566 Q239.2969,1593.6035 239.1719,1593.791 Q238.9063,1594.1816 238.4531,1594.1816 Q237.9844,1594.1816 237.7188,1593.7754 Q237.5938,1593.5879 237.5938,1592.916 L236.1094,1592.916 Z " fill="#000000"/><ellipse cx="262.75" cy="1591.6191" fill="#84BE84" rx="3" ry="3" style="stroke:#038048;stroke-width:1.0;"/><text fill="#000000" font-family="sans-serif" font-size="14" lengthAdjust="spacing" textLength="32" x="268.75" y="1597.916">Type</text><line style="stroke:#27AE60;stroke-width:2.0;" x1="171.5" x2="354.5" y1="1608.1191" y2="1608.1191"/><text fill="#000000" font-family="sans-serif" font-size="14" lengthAdjust="spacing" textLength="151" x="176.5" y="1627.2266">READER_CONNECTED</text><text fill="#000000" font-family="sans-serif" font-size="14" lengthAdjust="spacing" textLength="173" x="176.5" y="1645.8477">READER_DISCONNECTED</text><text fill="#000000" font-family="sans-serif" font-size="14" lengthAdjust="spacing" textLength="91" x="176.5" y="1664.4688">UNAVAILABLE</text><line style="stroke:#27AE60;stroke-width:2.0;" x1="171.5" x2="354.5" y1="1671.9824" y2="1671.9824"/></g><!--class KeyplePluginException--><g id="elem_KeyplePluginException"><rect codeLine="132" fill="#E9F7EF" height="100.4844" id="KeyplePluginException" rx="2.5" ry="2.5" style="stroke:#27AE60;stroke-width:2.0;" width="397" x="875.5" y="1578.1191"/><ellipse cx="992.75" cy="1601.7402" fill="#ADD1B2" rx="11" ry="11" style="stroke:#181818;stroke-width:1.0;"/><path d="M995.5156,1597.6152 Q995.6719,1597.3965 995.8594,1597.2871 Q996.0469,1597.1777 996.2656,1597.1777 Q996.6406,1597.1777 996.875,1597.4434 Q997.1094,1597.6934 997.1094,1598.3027 L997.1094,1599.7559 Q997.1094,1600.3652 996.875,1600.6309 Q996.6406,1600.8965 996.2656,1600.8965 Q995.9219,1600.8965 995.7188,1600.6934 Q995.5156,1600.5059 995.4063,1599.9902 Q995.3594,1599.6309 995.1719,1599.4434 Q994.8438,1599.0684 994.2344,1598.8496 Q993.625,1598.6309 993,1598.6309 Q992.2344,1598.6309 991.5938,1598.959 Q990.9688,1599.2871 990.4688,1600.0371 Q989.9844,1600.7871 989.9844,1601.8184 L989.9844,1602.9121 Q989.9844,1604.1465 990.875,1604.9746 Q991.7656,1605.7871 993.3594,1605.7871 Q994.2969,1605.7871 994.9531,1605.5371 Q995.3438,1605.3809 995.7656,1604.9434 Q996.0313,1604.6777 996.1719,1604.5996 Q996.3281,1604.5215 996.5313,1604.5215 Q996.8594,1604.5215 997.1094,1604.7871 Q997.375,1605.0371 997.375,1605.3809 Q997.375,1605.7246 997.0313,1606.1309 Q996.5313,1606.709 995.7344,1607.0371 Q994.6563,1607.4902 993.3594,1607.4902 Q991.8438,1607.4902 990.6406,1606.8652 Q989.6563,1606.3652 988.9688,1605.3027 Q988.2813,1604.2246 988.2813,1602.9434 L988.2813,1601.7871 Q988.2813,1600.459 988.8906,1599.3184 Q989.5156,1598.1621 990.6094,1597.5527 Q991.7031,1596.9277 992.9375,1596.9277 Q993.6719,1596.9277 994.3125,1597.0996 Q994.9688,1597.2559 995.5156,1597.6152 Z " fill="#000000"/><ellipse cx="1018.25" cy="1601.2402" fill="#84BE84" rx="3" ry="3" style="stroke:#038048;stroke-width:1.0;"/><text fill="#000000" font-family="sans-serif" font-size="14" lengthAdjust="spacing" textLength="129" x="1031.25" y="1598.2266">&#171;RuntimeException&#187;</text><text fill="#000000" font-family="sans-serif" font-size="14" lengthAdjust="spacing" textLength="143" x="1024.25" y="1616.8477">KeyplePluginException</text><line style="stroke:#27AE60;stroke-width:2.0;" x1="876.5" x2="1271.5" y1="1625.3613" y2="1625.3613"/><line style="stroke:#27AE60;stroke-width:2.0;" x1="876.5" x2="1271.5" y1="1633.3613" y2="1633.3613"/><ellipse cx="886.5" cy="1648.1719" fill="#84BE84" rx="3" ry="3" style="stroke:#038048;stroke-width:1.0;"/><text fill="#000000" font-family="sans-serif" font-size="14" lengthAdjust="spacing" textLength="255" x="895.5" y="1652.4688">KeyplePluginException (String message)</text><ellipse cx="886.5" cy="1666.793" fill="#84BE84" rx="3" ry="3" style="stroke:#038048;stroke-width:1.0;"/><text fill="#000000" font-family="sans-serif" font-size="14" lengthAdjust="spacing" textLength="371" x="895.5" y="1671.0898">KeyplePluginException (String message, Throwable cause)</text></g><!--class PluginObserverSpi--><g id="elem_PluginObserverSpi"><rect codeLine="113" fill="#FDEDEC" height="66.6211" id="PluginObserverSpi" rx="2.5" ry="2.5" style="stroke:#E74C3C;stroke-width:2.0;" width="314" x="105" y="1245.1191"/><ellipse cx="193.75" cy="1261.1191" fill="#B4A7E5" rx="11" ry="11" style="stroke:#181818;stroke-width:1.0;"/><path d="M194.7031,1257.7598 L194.7031,1264.416 L196.4219,1264.416 Q197.0313,1264.416 197.2969,1264.6504 Q197.5625,1264.8848 197.5625,1265.2754 Q197.5625,1265.6504 197.2969,1265.8848 Q197.0313,1266.1191 196.4219,1266.1191 L191.2813,1266.1191 Q190.6719,1266.1191 190.4063,1265.8848 Q190.1406,1265.6504 190.1406,1265.2598 Q190.1406,1264.8848 190.4063,1264.6504 Q190.6719,1264.416 191.2813,1264.416 L193,1264.416 L193,1257.7598 L191.2813,1257.7598 Q190.6719,1257.7598 190.4063,1257.5254 Q190.1406,1257.291 190.1406,1256.9004 Q190.1406,1256.5254 190.4063,1256.291 Q190.6719,1256.0566 191.2813,1256.0566 L196.4219,1256.0566 Q197.0313,1256.0566 197.2969,1256.291 Q197.5625,1256.5254 197.5625,1256.9004 Q197.5625,1257.291 197.2969,1257.5254 Q197.0313,1257.7598 196.4219,1257.7598 L194.7031,1257.7598 Z " fill="#000000"/><ellipse cx="219.25" cy="1260.6191" fill="#84BE84" rx="3" ry="3" style="stroke:#038048;stroke-width:1.0;"/><text fill="#000000" font-family="sans-serif" font-size="14" font-style="italic" lengthAdjust="spacing" textLength="117" x="225.25" y="1266.916">PluginObserverSpi</text><line style="stroke:#E74C3C;stroke-width:2.0;" x1="106" x2="418" y1="1277.1191" y2="1277.1191"/><line style="stroke:#E74C3C;stroke-width:2.0;" x1="106" x2="418" y1="1285.1191" y2="1285.1191"/><ellipse cx="116" cy="1299.9297" fill="#84BE84" rx="3" ry="3" style="stroke:#038048;stroke-width:1.0;"/><text fill="#000000" font-family="sans-serif" font-size="14" lengthAdjust="spacing" textLength="288" x="125" y="1304.2266">void onPluginEvent (PluginEvent pluginEvent)</text></g><!--class PluginObservationExceptionHandlerSpi--><g id="elem_PluginObservationExceptionHandlerSpi"><rect codeLine="116" fill="#FDEDEC" height="66.6211" id="PluginObservationExceptionHandlerSpi" rx="2.5" ry="2.5" style="stroke:#E74C3C;stroke-width:2.0;" width="435" x="454.5" y="1245.1191"/><ellipse cx="539.25" cy="1261.1191" fill="#B4A7E5" rx="11" ry="11" style="stroke:#181818;stroke-width:1.0;"/><path d="M540.2031,1257.7598 L540.2031,1264.416 L541.9219,1264.416 Q542.5313,1264.416 542.7969,1264.6504 Q543.0625,1264.8848 543.0625,1265.2754 Q543.0625,1265.6504 542.7969,1265.8848 Q542.5313,1266.1191 541.9219,1266.1191 L536.7813,1266.1191 Q536.1719,1266.1191 535.9063,1265.8848 Q535.6406,1265.6504 535.6406,1265.2598 Q535.6406,1264.8848 535.9063,1264.6504 Q536.1719,1264.416 536.7813,1264.416 L538.5,1264.416 L538.5,1257.7598 L536.7813,1257.7598 Q536.1719,1257.7598 535.9063,1257.5254 Q535.6406,1257.291 535.6406,1256.9004 Q535.6406,1256.5254 535.9063,1256.291 Q536.1719,1256.0566 536.7813,1256.0566 L541.9219,1256.0566 Q542.5313,1256.0566 542.7969,1256.291 Q543.0625,1256.5254 543.0625,1256.9004 Q543.0625,1257.291 542.7969,1257.5254 Q542.5313,1257.7598 541.9219,1257.7598 L540.2031,1257.7598 Z " fill="#000000"/><ellipse cx="564.75" cy="1260.6191" fill="#84BE84" rx="3" ry="3" style="stroke:#038048;stroke-width:1.0;"/><text fill="#000000" font-family="sans-serif" font-size="14" font-style="italic" lengthAdjust="spacing" textLength="246" x="570.75" y="1266.916">PluginObservationExceptionHandlerSpi</text><line style="stroke:#E74C3C;stroke-width:2.0;" x1="455.5" x2="888.5" y1="1277.1191" y2="1277.1191"/><line style="stroke:#E74C3C;stroke-width:2.0;" x1="455.5" x2="888.5" y1="1285.1191" y2="1285.1191"/><ellipse cx="465.5" cy="1299.9297" fill="#84BE84" rx="3" ry="3" style="stroke:#038048;stroke-width:1.0;"/><text fill="#000000" font-family="sans-serif" font-size="14" lengthAdjust="spacing" textLength="409" x="474.5" y="1304.2266">void onPluginObservationError (String pluginName, Throwable e)</text></g><!--reverse link Plugin to ObservablePlugin--><g id="link_Plugin_ObservablePlugin"><path d="M378.469,942.1501 C376.247,955.8381 374.007,969.6411 371.877,982.7671 " fill="none" id="Plugin-backto-ObservablePlugin" style="stroke:#181818;stroke-width:2.0;"/><polygon fill="none" points="371.581,940.8901,381.695,922.2701,385.401,943.1331,371.581,940.8901" style="stroke:#181818;stroke-width:2.0;"/></g><!--reverse link Plugin to PoolPlugin--><g id="link_Plugin_PoolPlugin"><path d="M623.063,930.1681 C664.639,947.7551 707.597,965.9261 747.845,982.9511 " fill="none" id="Plugin-backto-PoolPlugin" style="stroke:#181818;stroke-width:2.0;"/><polygon fill="none" points="620.084,936.5081,604.391,922.2701,625.538,923.6151,620.084,936.5081" style="stroke:#181818;stroke-width:2.0;"/></g><!--link SmartCardServiceProvider to SmartCardService--><g id="link_SmartCardServiceProvider_SmartCardService"><path codeLine="141" d="M479,259.1291 C479,278.4791 479,304.6791 479,332.6891 " fill="none" id="SmartCardServiceProvider-to-SmartCardService" style="stroke:#3498DB;stroke-width:2.0;stroke-dasharray:7.0,7.0;"/><polygon fill="#3498DB" points="479,337.9491,483,328.9491,479,332.9491,475,328.9491,479,337.9491" style="stroke:#3498DB;stroke-width:2.0;"/><polygon fill="#000000" points="484,303.7646,486.9389,294.7196,481.0611,294.7196,484,303.7646" style="stroke:#000000;stroke-width:1.0;"/><text fill="#000000" font-family="sans-serif" font-size="13" lengthAdjust="spacing" textLength="40" x="493" y="304.1475">provide</text></g><!--link SmartCardService to Plugin--><g id="link_SmartCardService_Plugin"><path codeLine="143" d="M437.986,665.4391 C431.619,690.7191 425.236,716.0561 419.437,739.0751 " fill="none" id="SmartCardService-to-Plugin" style="stroke:#3498DB;stroke-width:2.0;stroke-dasharray:7.0,7.0;"/><polygon fill="#3498DB" points="418.209,743.9511,424.2864,736.2009,419.4304,739.1026,416.5287,734.2467,418.209,743.9511" style="stroke:#3498DB;stroke-width:2.0;"/><polygon fill="#000000" points="433.7786,709.6132,438.838,701.56,433.1382,700.1242,433.7786,709.6132" style="stroke:#000000;stroke-width:1.0;"/><text fill="#000000" font-family="sans-serif" font-size="13" lengthAdjust="spacing" textLength="40" x="444" y="710.1475">provide</text></g><!--link SmartCardService to DistributedLocalService--><g id="link_SmartCardService_DistributedLocalService"><path codeLine="144" d="M755.309,665.1991 C824.927,706.1591 894.849,747.3021 947.857,778.4911 " fill="none" id="SmartCardService-to-DistributedLocalService" style="stroke:#3498DB;stroke-width:2.0;stroke-dasharray:7.0,7.0;"/><polygon fill="#3498DB" points="952.287,781.0971,946.5594,773.085,947.9779,778.5611,942.5018,779.9796,952.287,781.0971" style="stroke:#3498DB;stroke-width:2.0;"/><polygon fill="#000000" points="834.3094,707.3002,828.004,700.1803,825.0233,705.2463,834.3094,707.3002" style="stroke:#000000;stroke-width:1.0;"/><text fill="#000000" font-family="sans-serif" font-size="13" lengthAdjust="spacing" textLength="40" x="839" y="710.1475">provide</text></g><!--reverse link PluginEvent to PluginEventType--><g id="link_PluginEvent_PluginEventType"><path codeLine="146" d="M247.437,1512.2131 C246.284,1523.5001 245.925,1535.1281 247,1546.1191 C247.949,1555.8201 249.523,1566.0821 251.322,1575.9241 " fill="none" id="PluginEvent-backto-PluginEventType" style="stroke:#181818;stroke-width:2.0;"/><ellipse cx="248.3883" cy="1505.0534" fill="#FFFFFF" rx="8" ry="8" style="stroke:#181818;stroke-width:2.0;"/><line style="stroke:#181818;stroke-width:2.0;" x1="247.3347" x2="249.442" y1="1512.9838" y2="1497.1231"/><line style="stroke:#181818;stroke-width:2.0;" x1="240.458" x2="256.3186" y1="1503.9998" y2="1506.1071"/></g><!--link PluginEvent to PluginEventType--><g id="link_PluginEvent_PluginEventType"><path codeLine="147" d="M262.284,1497.5021 C262.41,1520.3361 262.559,1547.2841 262.688,1570.6771 " fill="none" id="PluginEvent-to-PluginEventType" style="stroke:#3498DB;stroke-width:2.0;stroke-dasharray:7.0,7.0;"/><polygon fill="#3498DB" points="262.717,1575.9211,266.6655,1566.8984,262.6884,1570.9212,258.6656,1566.9441,262.717,1575.9211" style="stroke:#3498DB;stroke-width:2.0;"/><polygon fill="#000000" points="267.0276,1541.7646,269.9165,1532.7034,264.0388,1532.7359,267.0276,1541.7646" style="stroke:#000000;stroke-width:1.0;"/><text fill="#000000" font-family="sans-serif" font-size="13" lengthAdjust="spacing" textLength="40" x="276" y="1542.1475">provide</text></g><!--link ObservablePlugin to PluginObserverSpi--><g id="link_ObservablePlugin_PluginObserverSpi"><path codeLine="149" d="M323.019,1143.3151 C307.944,1176.4951 291.137,1213.4881 278.985,1240.2351 " fill="none" id="ObservablePlugin-to-PluginObserverSpi" style="stroke:#27AE60;stroke-width:2.0;stroke-dasharray:7.0,7.0;"/><polygon fill="#27AE60" points="276.772,1245.1061,284.1374,1238.5677,278.8408,1240.5542,276.8543,1235.2576,276.772,1245.1061" style="stroke:#27AE60;stroke-width:2.0;"/><polygon fill="#000000" points="309.9318,1187.3168,316.3489,1180.2975,310.9975,1177.8662,309.9318,1187.3168" style="stroke:#000000;stroke-width:1.0;"/><text fill="#000000" font-family="sans-serif" font-size="13" lengthAdjust="spacing" textLength="21" x="321" y="1188.1475">use</text></g><!--link ObservablePlugin to PluginObservationExceptionHandlerSpi--><g id="link_ObservablePlugin_PluginObservationExceptionHandlerSpi"><path codeLine="150" d="M475.105,1143.3151 C524.96,1177.3221 580.685,1215.3321 620.093,1242.2131 " fill="none" id="ObservablePlugin-to-PluginObservationExceptionHandlerSpi" style="stroke:#27AE60;stroke-width:2.0;stroke-dasharray:7.0,7.0;"/><polygon fill="#27AE60" points="624.335,1245.1061,619.156,1236.7289,620.2051,1242.2876,614.6464,1243.3368,624.335,1245.1061" style="stroke:#27AE60;stroke-width:2.0;"/><polygon fill="#000000" points="552.1306,1185.5822,546.3144,1178.0573,543.0022,1182.9131,552.1306,1185.5822" style="stroke:#000000;stroke-width:1.0;"/><text fill="#000000" font-family="sans-serif" font-size="13" lengthAdjust="spacing" textLength="21" x="557" y="1188.1475">use</text></g><!--link PluginObserverSpi to PluginEvent--><g id="link_PluginObserverSpi_PluginEvent"><path codeLine="152" d="M262,1312.5131 C262,1333.9591 262,1362.5081 262,1387.5351 " fill="none" id="PluginObserverSpi-to-PluginEvent" style="stroke:#27AE60;stroke-width:2.0;stroke-dasharray:7.0,7.0;"/><polygon fill="#27AE60" points="262,1392.8181,266,1383.8181,262,1387.8181,258,1383.8181,262,1392.8181" style="stroke:#27AE60;stroke-width:2.0;"/><polygon fill="#000000" points="267,1358.7646,269.9389,1349.7196,264.0611,1349.7196,267,1358.7646" style="stroke:#000000;stroke-width:1.0;"/><text fill="#000000" font-family="sans-serif" font-size="13" lengthAdjust="spacing" textLength="21" x="276" y="1359.1475">use</text></g><!--link DistributedLocalService to KeyplePluginException--><!--SRC=[fLXRKziu57xFhz3I1o2j0qq2AKoQ6SUMQQPiO9AqiynsXp6sIBmubaTIe1c6_xwws8vymtJB2ygvVEVet2IP1In4BS3_lg9j729WW0UvC2WYZu67Z7_THzS8WplEwNMEE-_1GVUuspEEJutkwM4BHJvW4gEr3pv_1eily4_85_odXJSXsX0A0aetY08VWNEmOYocvqT7AxOEFHnYuc4VqOw7rqVtv8YvTo5oDuQF34zfLv3uaWRBo8X3bnsr_l3HVH0XODrUpE3DH-1ySiwSimAv2vokqtFw1N8Fm1CuW4NfFh07zjYs2-GJO9cMOtSBv5CmjgsUDT38bvFfLz3hdtsonnhrsno2xi24fySYLeO1vcmRyhYmbSk0ZwDz1fumUG1F0Lk123s1HqHeW2E0xm7VQyGswv2hjUX34CKkSTU0CaGGPjiOcMDCV4Gi4L7mpZopBTkf59pa1CTzSm1FAWMjFA9jVnntAmLXJX2EpthSjDmVdDh2NqtB2brAbVnY5NWF4Q8KwB0c8VX9Pt6a6nI6-Ac4udeFIu8taPzOTg03BLXjB16n-wPrR7F86V8Ry8P3WlpHYCFQq8RMAx2P91pqUHsqLW4lz9Iu2nEtUhqXlB4Q3STIJDhkGyiPl6fx9_m9zlkcdPhFw3aFxi9DitqX9FSpTawSyQlMKz6arXFR2JLd-O8W53MQNWefQVlC6K3dLTkPRD9JYV6KNBI-VOlnhRHjyZg2JRQbQDVgmHFTz3PlMSr4wsgwWDE5d8eXMigHYMCvT6zl9I85Ydvx2yublSqvy2S7YjmGn9kxCF20UJq11DrpyCX3T2VQ1iCxlfVphUoJKRij1ZYE3O9Sxh6QtsuSjDl38o4tocjvMpTAT48nOjTh75Ne2AULZwrMp2dk4e4zJ9OTv8L1J5570V11Jb0dEJhsW4j1iWRFqkm-cCFPzmdlK_7hlISY2_RQRJuYtP3xD5-xX5akyUTAxPhWHnvS8g7gc5hMbHM9_KoPomBlfQG6beYbouD3gV2Yt0aY7l5xbzDBEXhmTRXP1X5FnJ8GgKv-7cZXL4UfOeWiHcACEwx7CDac0UKJNN0Juk4E_H47FjX4HVGv8q6qJBIcxXffAdF4Xee_4dkxpcHekhzCJF4qiRn8OYtZlcwtB9qhH16-cQp1TC-g8ZM41dcEh0YP7mf1-L68cRT2teF0o29UaPCSFpNZwKGTr-Of8C7TXY7_4djkc1P3cfmwVjbkZMHTSVZLuetLKkjG4huQt49Uwr1uEdxBW9PtUVKxbmT5hWPKkiquA0GaguGTgxPtasBKEZPnZeC8Ht8LFrm099BWKz3Km8al8x0GI5gLoVDXk4XxEkD8-XjjgTtLs2emDOiapv7q3-3LPYbCYracL9uMUfhqxfJaaQQULtrThQ6hArDQLtQ_d-EcngnD-e_e1ylIu3UWQ9LGsjlLdJWYnIidATpKrt8ToswdwRXD51d7Xpyz58l55pVoGn7PHf5v771BULfffhg-ho2Aa4eV9-lYG29eZH_H_z7q-5kFf8Bvgk8H0_m56B4Ikpm1C0uRWpd7XAUhiXik-BKmdcLNBM7dpTNjyZdckGnLbdWUkEuWp2uVslIRen1vmj-Kz-R3jfGR7cAQkVSB9_PBUeExdiXLUWsaF9_FkJpb1h6UzlHPj1FVEOQZPDu-8fxf0_r7l5llOlRIPBAsxD_YXGx1twIauYRq0InM_BKgEXUWebylhUfZIMseScxjxctvGLnVf-MflU2l3i6N__FjWQBD6km9XhnCQ-v8uQexz0oQDfpTylVB55eBQ1SPzcHUvdsRcj_DoQKvleIvie5_MV1wCRcQpdDt_-5mndiwMACiKwFHZoX_02SCwNSbf_e5K2sQ9fA7ZlBoFVn5UJthdhkXsP7r8bvx9gNO2sJPqDQ-VXPOOI0ot-cCm8oFHuRIHunuOY8cnjaxzOte771KC6grQjyx0gJqGdcNV7Sw1x6IguAGgiaih5AebAyxVIijwcN-tZ2ATPRZxvpPrM4bQEcCt6dguwKGm4QjsWbHp4JPLC7raePy-5-QDrVVrBk_BeR6twl0zr7qZy7_geix0PilRYxLbzLiyExoeBvzFhyKUHsgTgC-WdB-Vm00]--></g></svg>